<svg width="763" height="18" viewBox="0 0 763 18" fill="none" xmlns="http://www.w3.org/2000/svg">
<path d="M763 17.5885C756.958 17.5885 753.803 14.265 751.252 11.5918C748.97 9.20758 747.292 7.4736 743.734 7.4736C740.109 7.4736 738.497 9.20758 736.215 11.5918C733.664 14.265 730.509 17.5885 724.467 17.5885C718.425 17.5885 715.27 14.265 712.719 11.5918C710.437 9.20758 708.759 7.4736 705.201 7.4736C701.643 7.4736 699.964 9.20758 697.682 11.5918C695.131 14.265 691.976 17.5885 685.934 17.5885C679.892 17.5885 676.737 14.265 674.186 11.5918C671.904 9.20758 670.226 7.4736 666.668 7.4736C663.043 7.4736 661.432 9.20758 659.149 11.5918C656.598 14.265 653.443 17.5885 647.401 17.5885C641.36 17.5885 638.205 14.265 635.654 11.5918C633.371 9.20758 631.693 7.4736 628.135 7.4736C624.51 7.4736 622.899 9.20758 620.616 11.5918C617.797 14.265 614.642 17.5885 608.6 17.5885C602.558 17.5885 599.403 14.265 596.852 11.5918C594.57 9.20758 592.891 7.4736 589.334 7.4736C585.708 7.4736 584.097 9.20758 581.815 11.5918C579.264 14.265 576.109 17.5885 570.067 17.5885C564.025 17.5885 560.87 14.265 558.319 11.5918C556.037 9.20758 554.359 7.4736 550.801 7.4736C547.176 7.4736 545.565 9.20758 543.282 11.5918C540.597 14.265 537.442 17.5885 531.4 17.5885C525.358 17.5885 522.203 14.265 519.652 11.5918C517.37 9.20758 515.691 7.4736 512.134 7.4736C508.508 7.4736 506.897 9.20758 504.615 11.5918C502.064 14.265 498.909 17.5885 492.867 17.5885C486.825 17.5885 483.67 14.265 481.119 11.5918C478.837 9.20758 477.159 7.4736 473.601 7.4736C470.043 7.4736 468.365 9.20758 466.082 11.5918C463.464 14.265 460.242 17.5885 454.2 17.5885C448.158 17.5885 445.003 14.265 442.452 11.5918C440.17 9.20758 438.491 7.4736 434.934 7.4736C431.309 7.4736 429.697 9.20758 427.415 11.5918C424.864 14.265 421.709 17.5885 415.667 17.5885C409.625 17.5885 406.47 14.265 403.919 11.5918C401.637 9.20758 399.959 7.4736 396.401 7.4736C392.776 7.4736 391.165 9.20758 388.882 11.5918C386.331 14.265 383.176 17.5885 377.134 17.5885C371.093 17.5885 367.937 14.265 365.386 11.5918C363.104 9.20758 361.426 7.4736 357.868 7.4736C354.31 7.4736 352.632 9.20758 350.349 11.5918C347.798 14.265 344.643 17.5885 338.601 17.5885C332.56 17.5885 329.405 14.265 326.854 11.5918C324.571 9.20758 322.893 7.4736 319.335 7.4736C315.71 7.4736 314.099 9.20758 311.816 11.5918C309.265 14.265 306.11 17.5885 300.069 17.5885C294.027 17.5885 290.872 14.265 288.321 11.5918C286.038 9.20758 284.36 7.4736 280.802 7.4736C277.177 7.4736 275.566 9.20758 273.283 11.5918C270.733 14.265 267.577 17.5885 261.536 17.5885C255.494 17.5885 252.339 14.265 249.788 11.5918C247.505 9.20758 245.827 7.4736 242.269 7.4736C238.644 7.4736 237.033 9.20758 234.751 11.5918C232.2 14.265 229.045 17.5885 223.003 17.5885C216.961 17.5885 213.806 14.265 211.255 11.5918C208.973 9.20758 207.294 7.4736 203.736 7.4736C200.178 7.4736 198.5 9.20758 196.218 11.5918C193.667 14.265 190.512 17.5885 184.47 17.5885C178.428 17.5885 175.273 14.265 172.722 11.5918C170.44 9.20758 168.761 7.4736 165.203 7.4736C161.578 7.4736 159.967 9.20758 157.685 11.5918C155.134 14.265 151.979 17.5885 145.937 17.5885C139.895 17.5885 136.74 14.265 134.189 11.5918C131.907 9.20758 130.229 7.4736 126.671 7.4736C123.046 7.4736 121.434 9.20758 119.152 11.5918C116.601 14.265 113.446 17.5885 107.404 17.5885C101.362 17.5885 98.2073 14.265 95.6563 11.5918C93.3739 9.20758 91.6956 7.4736 88.1377 7.4736C84.5127 7.4736 82.9016 9.20758 80.6191 11.5918C77.464 14.265 74.2417 17.5885 68.2 17.5885C62.1583 17.5885 59.0031 14.265 56.4522 11.5918C54.1697 9.20758 52.4915 7.4736 48.9336 7.4736C45.3085 7.4736 43.6974 9.20758 41.415 11.5918C38.864 14.265 35.7089 17.5885 29.6671 17.5885C23.6254 17.5885 20.4703 14.265 17.9193 11.5918C15.5697 9.20758 13.8915 7.4736 10.3336 7.4736C6.70852 7.4736 5.09739 9.20758 2.81496 11.5918C0.19687 14.265 -2.95826 17.5885 -9 17.5885V11.0861C-5.37496 11.0861 -3.76383 9.35207 -1.48139 6.96786C1.06956 4.29465 4.2247 0.971191 10.3336 0.971191C16.3753 0.971191 19.5304 4.29465 22.0814 6.96786C24.3638 9.35207 26.0421 11.0861 29.6 11.0861C33.225 11.0861 34.8362 9.35207 37.1186 6.96786C39.6696 4.29465 42.8918 0.971191 48.9336 0.971191C54.9753 0.971191 58.1304 4.29465 60.6814 6.96786C62.9638 9.35207 64.6421 11.0861 68.2 11.0861C71.825 11.0861 73.4362 9.35207 75.7186 6.96786C78.2696 4.29465 81.4247 0.971191 87.4664 0.971191C93.5082 0.971191 96.6633 4.29465 99.2143 6.96786C101.497 9.35207 103.175 11.0861 106.733 11.0861C110.358 11.0861 111.969 9.35207 114.251 6.96786C116.802 4.29465 119.958 0.971191 125.999 0.971191C132.041 0.971191 135.196 4.29465 137.747 6.96786C140.03 9.35207 141.708 11.0861 145.266 11.0861C148.891 11.0861 150.502 9.35207 152.784 6.96786C155.335 4.29465 158.49 0.971191 164.532 0.971191C170.574 0.971191 173.729 4.29465 176.28 6.96786C178.562 9.35207 180.241 11.0861 183.799 11.0861C187.424 11.0861 189.035 9.35207 191.317 6.96786C193.868 4.29465 197.023 0.971191 203.065 0.971191C209.107 0.971191 212.262 4.29465 214.813 6.96786C217.095 9.35207 218.774 11.0861 222.331 11.0861C225.957 11.0861 227.568 9.35207 229.85 6.96786C232.401 4.29465 235.556 0.971191 241.598 0.971191C247.64 0.971191 250.795 4.29465 253.346 6.96786C255.628 9.35207 257.306 11.0861 260.864 11.0861C264.422 11.0861 266.101 9.35207 268.383 6.96786C270.934 4.29465 274.089 0.971191 280.131 0.971191C286.173 0.971191 289.328 4.29465 291.879 6.96786C294.161 9.35207 295.839 11.0861 299.397 11.0861C303.022 11.0861 304.633 9.35207 306.916 6.96786C309.467 4.29465 312.622 0.971191 318.664 0.971191C324.705 0.971191 327.861 4.29465 330.411 6.96786C332.694 9.35207 334.372 11.0861 337.93 11.0861C341.555 11.0861 343.166 9.35207 345.449 6.96786C348 4.29465 351.155 0.971191 357.197 0.971191C363.238 0.971191 366.393 4.29465 368.944 6.96786C371.227 9.35207 372.905 11.0861 376.463 11.0861C380.088 11.0861 381.699 9.35207 383.982 6.96786C386.533 4.29465 389.688 0.971191 395.729 0.971191C401.771 0.971191 404.926 4.29465 407.477 6.96786C409.76 9.35207 411.438 11.0861 414.996 11.0861C418.621 11.0861 420.232 9.35207 422.514 6.96786C425.065 4.29465 428.221 0.971191 434.262 0.971191C440.304 0.971191 443.459 4.29465 446.01 6.96786C448.293 9.35207 449.971 11.0861 453.529 11.0861C457.154 11.0861 458.765 9.35207 461.047 6.96786C463.598 4.29465 466.753 0.971191 472.795 0.971191C478.837 0.971191 481.992 4.29465 484.543 6.96786C486.825 9.35207 488.504 11.0861 492.062 11.0861C495.687 11.0861 497.298 9.35207 499.58 6.96786C502.131 4.29465 505.286 0.971191 511.328 0.971191C517.37 0.971191 520.525 4.29465 523.076 6.96786C525.358 9.35207 527.036 11.0861 530.594 11.0861C534.219 11.0861 535.831 9.35207 538.113 6.96786C541.47 4.29465 544.625 0.971191 550.734 0.971191C556.775 0.971191 559.93 4.29465 562.481 6.96786C564.764 9.35207 566.442 11.0861 570 11.0861C573.558 11.0861 575.236 9.35207 577.519 6.96786C580.07 4.29465 583.225 0.971191 589.266 0.971191C595.308 0.971191 598.463 4.29465 601.014 6.96786C603.297 9.35207 604.975 11.0861 608.533 11.0861C612.091 11.0861 613.769 9.35207 616.051 6.96786C618.67 4.29465 621.825 0.971191 627.934 0.971191C634.042 0.971191 637.13 4.29465 639.681 6.96786C641.964 9.35207 643.642 11.0861 647.2 11.0861C650.758 11.0861 652.436 9.35207 654.719 6.96786C657.27 4.29465 660.425 0.971191 666.466 0.971191C672.508 0.971191 675.663 4.29465 678.214 6.96786C680.497 9.35207 682.175 11.0861 685.733 11.0861C689.358 11.0861 690.969 9.35207 693.251 6.96786C695.802 4.29465 698.958 0.971191 704.999 0.971191C711.041 0.971191 714.196 4.29465 716.747 6.96786C719.03 9.35207 720.708 11.0861 724.266 11.0861C727.824 11.0861 729.502 9.35207 731.784 6.96786C734.335 4.29465 737.49 0.971191 743.532 0.971191C749.574 0.971191 752.729 4.29465 755.28 6.96786C757.562 9.35207 759.241 11.0861 762.799 11.0861V17.5885H763Z" fill="#F1F1F1"/>
</svg>
